<?xml version="1.0" encoding="UTF-8" standalone="no"?>
<!-- Created with Inkscape (http://www.inkscape.org/) -->
<svg
   xmlns:dc="http://purl.org/dc/elements/1.1/"
   xmlns:cc="http://web.resource.org/cc/"
   xmlns:rdf="http://www.w3.org/1999/02/22-rdf-syntax-ns#"
   xmlns:svg="http://www.w3.org/2000/svg"
   xmlns="http://www.w3.org/2000/svg"
   xmlns:sodipodi="http://sodipodi.sourceforge.net/DTD/sodipodi-0.dtd"
   xmlns:inkscape="http://www.inkscape.org/namespaces/inkscape"
   width="600"
   height="226.67812"
   id="svg2186"
   sodipodi:version="0.32"
   inkscape:version="0.45"
   sodipodi:modified="true"
   version="1.0">
  <defs
     id="defs2188" />
  <sodipodi:namedview
     id="base"
     pagecolor="#ffffff"
     bordercolor="#666666"
     borderopacity="1.0"
     gridtolerance="10000"
     guidetolerance="10000"
     objecttolerance="10000"
     inkscape:pageopacity="0.0"
     inkscape:pageshadow="2"
     inkscape:zoom="0.35"
     inkscape:cx="375"
     inkscape:cy="520"
     inkscape:document-units="px"
     inkscape:current-layer="layer1"
     borderlayer="true"
     showgrid="true"
     gridspacingx="0px"
     gridspacingy="0px"
     gridempspacing="0"
     inkscape:object-points="true"
     inkscape:object-bbox="true"
     inkscape:object-nodes="true"
     inkscape:grid-points="true"
     inkscape:guide-points="true"
     inkscape:window-width="673"
     inkscape:window-height="577"
     inkscape:window-x="66"
     inkscape:window-y="87" />
  <metadata
     id="metadata2191">
    <rdf:RDF>
      <cc:Work
         rdf:about="">
        <dc:format>image/svg+xml</dc:format>
        <dc:type
           rdf:resource="http://purl.org/dc/dcmitype/StillImage" />
      </cc:Work>
    </rdf:RDF>
  </metadata>
  <g
     inkscape:label="Layer 1"
     inkscape:groupmode="layer"
     id="layer1"
     transform="translate(-54.55148,-220.06117)">
    <path
       style="fill:#0066ad;overflow:visible"
       d="M 539.604,446.73928 C 603.16825,446.73928 654.55148,396.06373 654.55148,333.42168 C 654.55148,270.90827 603.16825,220.06117 539.604,220.06117 L 169.26302,220.06117 C 105.68806,220.06117 54.55148,270.90827 54.55148,333.42168 C 54.55148,396.06373 105.68806,446.73928 169.26302,446.73928 L 539.604,446.73928"
       id="path9" />
    <path
       style="fill:#ffffff;overflow:visible"
       d="M 161.60702,295.52762 L 173.43417,266.89796 L 289.97929,266.89796 L 277.63744,295.52762 L 242.17744,294.8628 L 196.67029,399.45213 L 151.52768,399.45213 L 197.57096,294.8628 L 161.60702,295.52762"
       id="polyline11" />
    <path
       style="fill:#ffffff;overflow:visible"
       d="M 350.09083,402.51882 C 349.59756,402.90483 333.15967,404.62049 320.88217,404.04145 C 281.6156,402.15424 255.32351,376.93445 270.48543,337.41051 C 291.10518,283.73262 340.55834,268.18469 378.61324,267.75581 C 391.97373,267.75581 415.64945,269.17118 415.43503,269.44999 L 402.13884,301.01765 C 402.78223,301.12486 385.28275,300.0955 376.533,300.48151 C 354.36919,301.12486 329.35311,320.79031 321.64348,337.06741 C 313.19398,354.82422 320.88217,376.09808 337.39512,375.62625 C 350.01577,374.9829 362.80793,375.62625 363.36554,375.26171 L 350.09083,402.51882"
       id="path13" />
    <path
       style="fill:#ffffff;overflow:visible"
       d="M 539.604,268.52784 L 478.05565,268.52784 L 376.94049,401.12488 L 422.59781,401.12488 L 448.09639,368.20615 L 485.26129,368.24906 L 481.6156,399.36636 L 526.22208,401.12488 L 539.604,268.52784 M 493.36769,307.04381 L 487.59886,348.39057 L 461.77855,348.39057 L 493.36769,307.04381 z "
       id="path15" />
  </g>
</svg>
